{
  "source": "C:\\Users\\Peter\\Desktop\\stuff\\MIUN\\quantitative_research\\video_compression\\videos\\UVG\\Bosphorus_1920x1080_120fps_420_8bit_YUV.y4m",
  "output": "C:\\Users\\Peter\\Desktop\\stuff\\MIUN\\quantitative_research\\video_compression\\compressed_videos\\UVG\\vp9\\2.5\\Bosphorus_1920x1080_120fps_420_8bit_YUV_vp9.webm",
  "codec": "vp9",
  "ok": "[yuv4mpegpipe @ 0000021f68e153c0] Stream #0: not enough frames to estimate rate; consider increasing probesize\nInput #0, yuv4mpegpipe, from 'C:\\Users\\Peter\\Desktop\\stuff\\MIUN\\quantitative_research\\video_compression\\videos\\UVG\\Bosphorus_1920x1080_120fps_420_8bit_YUV.y4m':\n  Duration: 00:00:05.00, start: 0.000000, bitrate: 2985989 kb/s\n  Stream #0:0: Video: rawvideo (I420 / 0x30323449), yuv420p(progressive), 1920x1080, 120 fps, 120 tbr, 120 tbn\n[out#0/webm @ 0000021f68e19040] Codec AVOption b:a (set bitrate (in bits/s)) has not been used for any stream. The most likely reason is either wrong type (e.g. a video option with no video streams) or that it is a private option of some decoder which was not actually used for any stream.\nStream mapping:\n  Stream #0:0 -> #0:0 (rawvideo (native) -> vp9 (libvpx-vp9))\nPress [q] to stop, [?] for help\n[libvpx-vp9 @ 0000021f68e1c100] v1.15.2-100-g40561f514\nOutput #0, webm, to 'C:\\Users\\Peter\\Desktop\\stuff\\MIUN\\quantitative_research\\video_compression\\compressed_videos\\UVG\\vp9\\2.5\\Bosphorus_1920x1080_120fps_420_8bit_YUV_vp9.webm':\n  Metadata:\n    encoder         : Lavf62.3.100\n  Stream #0:0: Video: vp9, yuv420p(tv, progressive), 1920x1080, q=2-31, 2500 kb/s, 120 fps, 1k tbn\n    Metadata:\n      encoder         : Lavc62.11.100 libvpx-vp9\n    Side data:\n      cpb: bitrate max/min/avg: 0/0/0 buffer size: 2500000 vbv_delay: N/A\nframe=    1 fps=0.0 q=42.0 size=       0KiB time=00:00:00.00 bitrate= 461.8kbits/s speed=0.0157x elapsed=0:00:00.53    \nframe=    7 fps=6.5 q=48.0 size=       0KiB time=00:00:00.05 bitrate=  66.0kbits/s speed=0.0545x elapsed=0:00:01.07    \nframe=   12 fps=7.4 q=48.0 size=       0KiB time=00:00:00.10 bitrate=  38.5kbits/s speed=0.062x elapsed=0:00:01.61    \nframe=   16 fps=7.3 q=36.0 size=       0KiB time=00:00:00.13 bitrate=  28.9kbits/s speed=0.0607x elapsed=0:00:02.19    \nframe=   21 fps=7.6 q=45.0 size=       0KiB time=00:00:00.17 bitrate=  22.0kbits/s speed=0.0634x elapsed=0:00:02.76    \nframe=   26 fps=7.9 q=45.0 size=       0KiB time=00:00:00.21 bitrate=  17.8kbits/s speed=0.0658x elapsed=0:00:03.29    \nframe=   30 fps=7.8 q=45.0 size=       0KiB time=00:00:00.25 bitrate=  15.4kbits/s speed=0.0647x elapsed=0:00:03.86    \nframe=   35 fps=7.9 q=43.0 size=       0KiB time=00:00:00.29 bitrate=  13.2kbits/s speed=0.0658x elapsed=0:00:04.43    \nframe=   40 fps=8.0 q=49.0 size=       0KiB time=00:00:00.33 bitrate=  11.5kbits/s speed=0.0668x elapsed=0:00:04.98    \nframe=   45 fps=8.1 q=43.0 size=       0KiB time=00:00:00.37 bitrate=  10.3kbits/s speed=0.0674x elapsed=0:00:05.56    \nframe=   49 fps=8.0 q=42.0 size=       0KiB time=00:00:00.40 bitrate=   9.4kbits/s speed=0.0664x elapsed=0:00:06.14    \nframe=   54 fps=8.0 q=40.0 size=       0KiB time=00:00:00.45 bitrate=   8.6kbits/s speed=0.0669x elapsed=0:00:06.72    \nframe=   59 fps=8.1 q=47.0 size=       0KiB time=00:00:00.49 bitrate=   7.8kbits/s speed=0.0675x elapsed=0:00:07.27    \nframe=   64 fps=8.2 q=43.0 size=       0KiB time=00:00:00.53 bitrate=   7.2kbits/s speed=0.0684x elapsed=0:00:07.79    \nframe=   70 fps=8.4 q=46.0 size=       0KiB time=00:00:00.58 bitrate=   6.6kbits/s speed=0.0702x elapsed=0:00:08.31    \nframe=   75 fps=8.5 q=50.0 size=       0KiB time=00:00:00.62 bitrate=   6.2kbits/s speed=0.0706x elapsed=0:00:08.85    \nframe=   78 fps=8.3 q=41.0 size=       0KiB time=00:00:00.65 bitrate=   5.9kbits/s speed=0.0689x elapsed=0:00:09.43    \nframe=   82 fps=8.2 q=42.0 size=       0KiB time=00:00:00.68 bitrate=   5.6kbits/s speed=0.0683x elapsed=0:00:10.00    \nframe=   86 fps=8.1 q=42.0 size=       0KiB time=00:00:00.71 bitrate=   5.4kbits/s speed=0.0678x elapsed=0:00:10.56    \nframe=   89 fps=8.0 q=48.0 size=       0KiB time=00:00:00.74 bitrate=   5.2kbits/s speed=0.0667x elapsed=0:00:11.12    \nframe=   92 fps=7.9 q=47.0 size=       0KiB time=00:00:00.76 bitrate=   5.0kbits/s speed=0.0658x elapsed=0:00:11.65    \nframe=   96 fps=7.9 q=45.0 size=       0KiB time=00:00:00.80 bitrate=   4.8kbits/s speed=0.0655x elapsed=0:00:12.20    \nframe=  100 fps=7.8 q=47.0 size=       0KiB time=00:00:00.83 bitrate=   4.6kbits/s speed=0.0654x elapsed=0:00:12.74    \nframe=  103 fps=7.7 q=43.0 size=       0KiB time=00:00:00.85 bitrate=   4.5kbits/s speed=0.0644x elapsed=0:00:13.32    \nframe=  107 fps=7.7 q=50.0 size=       0KiB time=00:00:00.89 bitrate=   4.3kbits/s speed=0.0643x elapsed=0:00:13.85    \nframe=  111 fps=7.7 q=46.0 size=       0KiB time=00:00:00.92 bitrate=   4.2kbits/s speed=0.0643x elapsed=0:00:14.37    \nframe=  115 fps=7.7 q=47.0 size=       0KiB time=00:00:00.95 bitrate=   4.0kbits/s speed=0.0642x elapsed=0:00:14.91    \nframe=  118 fps=7.6 q=46.0 size=       0KiB time=00:00:00.98 bitrate=   3.9kbits/s speed=0.0637x elapsed=0:00:15.44    \nframe=  122 fps=7.6 q=47.0 size=       0KiB time=00:00:01.01 bitrate=   3.8kbits/s speed=0.0637x elapsed=0:00:15.95    \nframe=  126 fps=7.6 q=49.0 size=       0KiB time=00:00:01.05 bitrate=   3.7kbits/s speed=0.0635x elapsed=0:00:16.52    \nframe=  129 fps=7.6 q=34.0 size=       0KiB time=00:00:01.06 bitrate=   3.6kbits/s speed=0.0625x elapsed=0:00:17.07    \nframe=  133 fps=7.5 q=42.0 size=     256KiB time=00:00:01.10 bitrate=1892.2kbits/s speed=0.0628x elapsed=0:00:17.65    \nframe=  138 fps=7.6 q=47.0 size=     256KiB time=00:00:01.14 bitrate=1836.9kbits/s speed=0.0628x elapsed=0:00:18.16    \nframe=  143 fps=7.6 q=43.0 size=     256KiB time=00:00:01.18 bitrate=1772.2kbits/s speed=0.0632x elapsed=0:00:18.72    \nframe=  146 fps=7.6 q=44.0 size=     256KiB time=00:00:01.21 bitrate=1723.7kbits/s speed=0.0631x elapsed=0:00:19.28    \nframe=  150 fps=7.6 q=46.0 size=     256KiB time=00:00:01.25 bitrate=1677.7kbits/s speed=0.063x elapsed=0:00:19.85    \nframe=  155 fps=7.6 q=50.0 size=     256KiB time=00:00:01.29 bitrate=1623.6kbits/s speed=0.0633x elapsed=0:00:20.39    \nframe=  160 fps=7.6 q=50.0 size=     256KiB time=00:00:01.33 bitrate=1572.9kbits/s speed=0.0636x elapsed=0:00:20.95    \nframe=  165 fps=7.7 q=45.0 size=     256KiB time=00:00:01.37 bitrate=1525.2kbits/s speed=0.064x elapsed=0:00:21.47    \nframe=  170 fps=7.7 q=50.0 size=     256KiB time=00:00:01.41 bitrate=1480.3kbits/s speed=0.0644x elapsed=0:00:21.99    \nframe=  173 fps=7.7 q=44.0 size=     256KiB time=00:00:01.44 bitrate=1454.7kbits/s speed=0.064x elapsed=0:00:22.52    \nframe=  177 fps=7.7 q=43.0 size=     256KiB time=00:00:01.47 bitrate=1421.8kbits/s speed=0.064x elapsed=0:00:23.04    \nframe=  182 fps=7.7 q=42.0 size=     256KiB time=00:00:01.51 bitrate=1382.7kbits/s speed=0.0644x elapsed=0:00:23.56    \nframe=  187 fps=7.8 q=49.0 size=     256KiB time=00:00:01.55 bitrate=1345.8kbits/s speed=0.0647x elapsed=0:00:24.09    \nframe=  190 fps=7.7 q=48.0 size=     256KiB time=00:00:01.58 bitrate=1324.5kbits/s speed=0.0643x elapsed=0:00:24.63    \nframe=  195 fps=7.8 q=44.0 size=     256KiB time=00:00:01.61 bitrate=1297.2kbits/s speed=0.0643x elapsed=0:00:25.15    \nframe=  199 fps=7.7 q=45.0 size=     256KiB time=00:00:01.65 bitrate=1264.6kbits/s speed=0.0644x elapsed=0:00:25.73    \nframe=  203 fps=7.7 q=45.0 size=     256KiB time=00:00:01.69 bitrate=1239.7kbits/s speed=0.0643x elapsed=0:00:26.30    \nframe=  208 fps=7.7 q=42.0 size=     256KiB time=00:00:01.73 bitrate=1209.9kbits/s speed=0.0645x elapsed=0:00:26.88    \nframe=  213 fps=7.8 q=47.0 size=     256KiB time=00:00:01.77 bitrate=1181.5kbits/s speed=0.0647x elapsed=0:00:27.44    \nframe=  217 fps=7.7 q=47.0 size=     256KiB time=00:00:01.80 bitrate=1159.7kbits/s speed=0.0646x elapsed=0:00:28.01    \nframe=  221 fps=7.7 q=41.0 size=     256KiB time=00:00:01.84 bitrate=1138.7kbits/s speed=0.0644x elapsed=0:00:28.58    \nframe=  225 fps=7.7 q=43.0 size=     256KiB time=00:00:01.87 bitrate=1118.5kbits/s speed=0.0644x elapsed=0:00:29.11    \nframe=  230 fps=7.8 q=46.0 size=     256KiB time=00:00:01.91 bitrate=1094.2kbits/s speed=0.0646x elapsed=0:00:29.67    \nframe=  233 fps=7.7 q=42.0 size=     256KiB time=00:00:01.94 bitrate=1080.1kbits/s speed=0.0642x elapsed=0:00:30.26    \nframe=  238 fps=7.7 q=43.0 size=     256KiB time=00:00:01.98 bitrate=1057.4kbits/s speed=0.0644x elapsed=0:00:30.79    \nframe=  242 fps=7.7 q=44.0 size=     256KiB time=00:00:02.01 bitrate=1039.9kbits/s speed=0.0644x elapsed=0:00:31.31    \nframe=  246 fps=7.7 q=49.0 size=     256KiB time=00:00:02.05 bitrate=1023.0kbits/s speed=0.0644x elapsed=0:00:31.83    \nframe=  250 fps=7.7 q=46.0 size=     256KiB time=00:00:02.08 bitrate=1006.6kbits/s speed=0.0643x elapsed=0:00:32.37    \nframe=  255 fps=7.7 q=44.0 size=     256KiB time=00:00:02.12 bitrate= 986.9kbits/s speed=0.0645x elapsed=0:00:32.93    \nframe=  259 fps=7.7 q=41.0 size=     512KiB time=00:00:02.15 bitrate=1943.3kbits/s speed=0.0644x elapsed=0:00:33.50    \nframe=  263 fps=7.7 q=45.0 size=     512KiB time=00:00:02.19 bitrate=1913.8kbits/s speed=0.0644x elapsed=0:00:34.04    \nframe=  268 fps=7.8 q=44.0 size=     512KiB time=00:00:02.23 bitrate=1878.0kbits/s speed=0.0646x elapsed=0:00:34.56    \nframe=  272 fps=7.8 q=48.0 size=     512KiB time=00:00:02.26 bitrate=1850.4kbits/s speed=0.0646x elapsed=0:00:35.07    \nframe=  277 fps=7.8 q=45.0 size=     512KiB time=00:00:02.30 bitrate=1817.0kbits/s speed=0.0648x elapsed=0:00:35.62    \nframe=  281 fps=7.8 q=45.0 size=     512KiB time=00:00:02.34 bitrate=1791.2kbits/s speed=0.0647x elapsed=0:00:36.18    \nframe=  284 fps=7.7 q=45.0 size=     512KiB time=00:00:02.36 bitrate=1772.2kbits/s speed=0.0645x elapsed=0:00:36.71    \nframe=  289 fps=7.8 q=43.0 size=     512KiB time=00:00:02.40 bitrate=1741.6kbits/s speed=0.0646x elapsed=0:00:37.25    \nframe=  293 fps=7.8 q=48.0 size=     512KiB time=00:00:02.44 bitrate=1717.8kbits/s speed=0.0646x elapsed=0:00:37.78    \nframe=  297 fps=7.7 q=46.0 size=     512KiB time=00:00:02.47 bitrate=1694.7kbits/s speed=0.0645x elapsed=0:00:38.34    \nframe=  302 fps=7.8 q=46.0 size=     512KiB time=00:00:02.50 bitrate=1672.1kbits/s speed=0.0645x elapsed=0:00:38.86    \nframe=  305 fps=7.7 q=44.0 size=     512KiB time=00:00:02.54 bitrate=1650.2kbits/s speed=0.0645x elapsed=0:00:39.40    \nframe=  310 fps=7.8 q=44.0 size=     512KiB time=00:00:02.58 bitrate=1623.6kbits/s speed=0.0647x elapsed=0:00:39.95    \nframe=  314 fps=7.8 q=47.0 size=     512KiB time=00:00:02.61 bitrate=1602.9kbits/s speed=0.0646x elapsed=0:00:40.51    \nframe=  319 fps=7.8 q=44.0 size=     512KiB time=00:00:02.65 bitrate=1577.8kbits/s speed=0.0648x elapsed=0:00:41.03    \nframe=  323 fps=7.8 q=44.0 size=     512KiB time=00:00:02.69 bitrate=1558.3kbits/s speed=0.0647x elapsed=0:00:41.59    \nframe=  327 fps=7.8 q=38.0 size=     512KiB time=00:00:02.72 bitrate=1539.2kbits/s speed=0.0647x elapsed=0:00:42.12    \nframe=  332 fps=7.8 q=47.0 size=     512KiB time=00:00:02.76 bitrate=1516.0kbits/s speed=0.0648x elapsed=0:00:42.68    \nframe=  336 fps=7.8 q=42.0 size=     512KiB time=00:00:02.80 bitrate=1498.0kbits/s speed=0.0647x elapsed=0:00:43.26    \nframe=  340 fps=7.8 q=45.0 size=     512KiB time=00:00:02.83 bitrate=1480.3kbits/s speed=0.0647x elapsed=0:00:43.81    \nframe=  344 fps=7.7 q=45.0 size=     512KiB time=00:00:02.86 bitrate=1463.1kbits/s speed=0.0646x elapsed=0:00:44.39    \nframe=  347 fps=7.7 q=45.0 size=     512KiB time=00:00:02.89 bitrate=1450.5kbits/s speed=0.0643x elapsed=0:00:44.93    \nframe=  352 fps=7.7 q=45.0 size=     512KiB time=00:00:02.93 bitrate=1429.9kbits/s speed=0.0645x elapsed=0:00:45.45    \nframe=  355 fps=7.7 q=38.0 size=     512KiB time=00:00:02.95 bitrate=1417.8kbits/s speed=0.0643x elapsed=0:00:45.99    \nframe=  359 fps=7.7 q=44.0 size=     512KiB time=00:00:02.99 bitrate=1402.0kbits/s speed=0.0643x elapsed=0:00:46.53    \nframe=  363 fps=7.7 q=48.0 size=     512KiB time=00:00:03.02 bitrate=1386.5kbits/s speed=0.0643x elapsed=0:00:47.07    \nframe=  367 fps=7.7 q=46.0 size=     512KiB time=00:00:03.05 bitrate=1371.4kbits/s speed=0.0642x elapsed=0:00:47.65    \nframe=  371 fps=7.7 q=42.0 size=     512KiB time=00:00:03.09 bitrate=1356.6kbits/s speed=0.0642x elapsed=0:00:48.18    \nframe=  375 fps=7.7 q=45.0 size=     512KiB time=00:00:03.12 bitrate=1342.2kbits/s speed=0.0642x elapsed=0:00:48.71    \nframe=  380 fps=7.7 q=43.0 size=     512KiB time=00:00:03.16 bitrate=1324.5kbits/s speed=0.0643x elapsed=0:00:49.27    \nframe=  384 fps=7.7 q=43.0 size=     512KiB time=00:00:03.20 bitrate=1310.7kbits/s speed=0.0642x elapsed=0:00:49.83    \nframe=  388 fps=7.7 q=44.0 size=    1024KiB time=00:00:03.23 bitrate=2594.4kbits/s speed=0.0641x elapsed=0:00:50.41    \nframe=  393 fps=7.7 q=46.0 size=    1024KiB time=00:00:03.27 bitrate=2561.4kbits/s speed=0.0643x elapsed=0:00:50.93    \nframe=  397 fps=7.7 q=47.0 size=    1024KiB time=00:00:03.30 bitrate=2535.6kbits/s speed=0.0643x elapsed=0:00:51.48    \nframe=  401 fps=7.7 q=41.0 size=    1024KiB time=00:00:03.34 bitrate=2510.3kbits/s speed=0.0642x elapsed=0:00:52.01    \nframe=  405 fps=7.7 q=43.0 size=    1024KiB time=00:00:03.37 bitrate=2485.5kbits/s speed=0.0642x elapsed=0:00:52.57    \nframe=  410 fps=7.7 q=48.0 size=    1024KiB time=00:00:03.41 bitrate=2455.2kbits/s speed=0.0643x elapsed=0:00:53.11    \nframe=  413 fps=7.7 q=42.0 size=    1024KiB time=00:00:03.44 bitrate=2437.4kbits/s speed=0.0641x elapsed=0:00:53.65    \nframe=  418 fps=7.7 q=42.0 size=    1024KiB time=00:00:03.48 bitrate=2408.2kbits/s speed=0.0643x elapsed=0:00:54.19    \nframe=  422 fps=7.7 q=42.0 size=    1024KiB time=00:00:03.51 bitrate=2385.4kbits/s speed=0.0642x elapsed=0:00:54.75    \nframe=  426 fps=7.7 q=42.0 size=    1024KiB time=00:00:03.55 bitrate=2363.0kbits/s speed=0.0642x elapsed=0:00:55.28    \nframe=  430 fps=7.7 q=50.0 size=    1024KiB time=00:00:03.58 bitrate=2341.0kbits/s speed=0.0642x elapsed=0:00:55.83    \nframe=  434 fps=7.7 q=46.0 size=    1024KiB time=00:00:03.61 bitrate=2319.4kbits/s speed=0.0642x elapsed=0:00:56.36    \nframe=  438 fps=7.7 q=40.0 size=    1024KiB time=00:00:03.65 bitrate=2298.2kbits/s speed=0.0642x elapsed=0:00:56.89    \nframe=  443 fps=7.7 q=47.0 size=    1024KiB time=00:00:03.69 bitrate=2272.3kbits/s speed=0.0642x elapsed=0:00:57.45    \nframe=  447 fps=7.7 q=48.0 size=    1024KiB time=00:00:03.72 bitrate=2252.0kbits/s speed=0.0642x elapsed=0:00:58.00    \nframe=  450 fps=7.7 q=41.0 size=    1024KiB time=00:00:03.75 bitrate=2237.0kbits/s speed=0.0641x elapsed=0:00:58.53    \nframe=  455 fps=7.7 q=43.0 size=    1024KiB time=00:00:03.79 bitrate=2212.4kbits/s speed=0.0642x elapsed=0:00:59.06    \nframe=  460 fps=7.7 q=46.0 size=    1024KiB time=00:00:03.83 bitrate=2188.3kbits/s speed=0.0643x elapsed=0:00:59.62    \nframe=  464 fps=7.7 q=47.0 size=    1024KiB time=00:00:03.86 bitrate=2169.5kbits/s speed=0.0642x elapsed=0:01:00.22    \nframe=  467 fps=7.7 q=49.0 size=    1024KiB time=00:00:03.89 bitrate=2155.5kbits/s speed=0.0641x elapsed=0:01:00.75    \nframe=  471 fps=7.7 q=45.0 size=    1024KiB time=00:00:03.92 bitrate=2137.2kbits/s speed=0.0641x elapsed=0:01:01.26    \nframe=  476 fps=7.7 q=43.0 size=    1024KiB time=00:00:03.96 bitrate=2114.8kbits/s speed=0.0642x elapsed=0:01:01.77    \nframe=  480 fps=7.7 q=43.0 size=    1024KiB time=00:00:04.00 bitrate=2097.2kbits/s speed=0.0642x elapsed=0:01:02.32    \nframe=  484 fps=7.7 q=45.0 size=    1024KiB time=00:00:04.03 bitrate=2079.8kbits/s speed=0.0641x elapsed=0:01:02.90    \nframe=  488 fps=7.7 q=38.0 size=    1024KiB time=00:00:04.06 bitrate=2062.8kbits/s speed=0.0641x elapsed=0:01:03.44    \nframe=  492 fps=7.7 q=44.0 size=    1024KiB time=00:00:04.10 bitrate=2046.0kbits/s speed=0.0641x elapsed=0:01:03.99    \nframe=  496 fps=7.7 q=45.0 size=    1024KiB time=00:00:04.13 bitrate=2029.5kbits/s speed=0.064x elapsed=0:01:04.57    \nframe=  499 fps=7.7 q=48.0 size=    1024KiB time=00:00:04.15 bitrate=2017.3kbits/s speed=0.0639x elapsed=0:01:05.10    \nframe=  504 fps=7.7 q=43.0 size=    1024KiB time=00:00:04.19 bitrate=2001.3kbits/s speed=0.0639x elapsed=0:01:05.62    \nframe=  508 fps=7.7 q=45.0 size=    1024KiB time=00:00:04.23 bitrate=1981.6kbits/s speed=0.064x elapsed=0:01:06.18    \nframe=  512 fps=7.7 q=44.0 size=    1024KiB time=00:00:04.26 bitrate=1966.1kbits/s speed=0.0639x elapsed=0:01:06.71    \nframe=  517 fps=7.7 q=43.0 size=    1536KiB time=00:00:04.30 bitrate=2926.3kbits/s speed=0.0639x elapsed=0:01:07.30    \nframe=  522 fps=7.7 q=46.0 size=    1536KiB time=00:00:04.35 bitrate=2892.6kbits/s speed=0.0641x elapsed=0:01:07.91    \nframe=  527 fps=7.7 q=45.0 size=    1536KiB time=00:00:04.39 bitrate=2865.2kbits/s speed=0.0642x elapsed=0:01:08.45    \nframe=  531 fps=7.7 q=45.0 size=    1536KiB time=00:00:04.42 bitrate=2843.6kbits/s speed=0.0641x elapsed=0:01:09.02    \nframe=  535 fps=7.7 q=38.0 size=    1536KiB time=00:00:04.45 bitrate=2822.3kbits/s speed=0.0641x elapsed=0:01:09.56    \nframe=  539 fps=7.7 q=44.0 size=    1536KiB time=00:00:04.49 bitrate=2801.4kbits/s speed=0.0641x elapsed=0:01:10.10    \nframe=  543 fps=7.7 q=49.0 size=    1536KiB time=00:00:04.52 bitrate=2780.8kbits/s speed=0.0641x elapsed=0:01:10.62    \nframe=  547 fps=7.7 q=47.0 size=    1536KiB time=00:00:04.55 bitrate=2760.4kbits/s speed=0.064x elapsed=0:01:11.18    \nframe=  551 fps=7.7 q=43.0 size=    1536KiB time=00:00:04.59 bitrate=2740.4kbits/s speed=0.064x elapsed=0:01:11.74    \nframe=  555 fps=7.7 q=46.0 size=    1536KiB time=00:00:04.62 bitrate=2720.6kbits/s speed=0.064x elapsed=0:01:12.26    \nframe=  560 fps=7.7 q=44.0 size=    1536KiB time=00:00:04.66 bitrate=2696.3kbits/s speed=0.0641x elapsed=0:01:12.82    \nframe=  563 fps=7.7 q=37.0 size=    1536KiB time=00:00:04.69 bitrate=2682.0kbits/s speed=0.0639x elapsed=0:01:13.37    \nframe=  568 fps=7.7 q=47.0 size=    1536KiB time=00:00:04.73 bitrate=2658.4kbits/s speed=0.064x elapsed=0:01:13.90    \nframe=  572 fps=7.7 q=43.0 size=    1536KiB time=00:00:04.76 bitrate=2639.8kbits/s speed=0.0641x elapsed=0:01:14.41    \nframe=  576 fps=7.7 q=46.0 size=    1536KiB time=00:00:04.80 bitrate=2621.4kbits/s speed=0.064x elapsed=0:01:14.98    \nframe=  576 fps=7.6 q=46.0 size=    1536KiB time=00:00:04.80 bitrate=2621.4kbits/s speed=0.0635x elapsed=0:01:15.56    \nframe=  576 fps=7.6 q=46.0 size=    1536KiB time=00:00:04.80 bitrate=2621.4kbits/s speed=0.0631x elapsed=0:01:16.11    \nframe=  576 fps=7.5 q=46.0 size=    1536KiB time=00:00:04.80 bitrate=2621.4kbits/s speed=0.0626x elapsed=0:01:16.64    \nframe=  576 fps=7.5 q=46.0 size=    1536KiB time=00:00:04.80 bitrate=2621.4kbits/s speed=0.0622x elapsed=0:01:17.20    \nframe=  576 fps=7.4 q=46.0 size=    1536KiB time=00:00:04.80 bitrate=2621.4kbits/s speed=0.0617x elapsed=0:01:17.73    \n[out#0/webm @ 0000021f68e19040] video:1862KiB audio:0KiB subtitle:0KiB other streams:0KiB global headers:0KiB muxing overhead: 0.254005%\nframe=  600 fps=7.7 q=43.0 Lsize=    1867KiB time=00:00:05.00 bitrate=3058.4kbits/s speed=0.0641x elapsed=0:01:17.96    \n",
  "seconds": 78.13852095603943,
  "probe_out": {}
}